<svg id="Capa_1" data-name="Capa 1" xmlns="http://www.w3.org/2000/svg" viewBox="0 0 505.53 77.43"><defs><style>.cls-1{fill:#020360;}.cls-2{fill:#ff7802;}</style></defs><path class="cls-1" d="M96.93,58.83V19.69h4.81l-.06,3.75V58.83Zm28.13,0-27-36.51,3.69-2.63,27,36.46Zm0,0V19.69h4.75V58.83Z"/><path class="cls-1" d="M140.21,58.83V19.69H145V58.83ZM144.4,24V19.69h19V24Zm0,16.88V36.63h17.34v4.25Zm0,17.95v-4.3h19.07v4.3Z"/><path class="cls-1" d="M173.31,58.83V19.69h4.75V58.83ZM177.5,24V19.69h19V24Zm0,16.88V36.63h17.34v4.25Zm0,17.95v-4.3h19.07v4.3Z"/><path class="cls-1" d="M206.41,58.83V19.69h4.75V58.83Zm3.8-34.78V19.69h8.11v4.36Zm0,34.78V54.47h8.11v4.36Zm8.11,0V54.47a13,13,0,0,0,5.48-1.15,13.47,13.47,0,0,0,4.45-3.27,15.88,15.88,0,0,0,3-4.89,16.14,16.14,0,0,0-3-16.69,13.47,13.47,0,0,0-4.45-3.27,13,13,0,0,0-5.48-1.15V19.69a18.87,18.87,0,0,1,9.76,2.49,17.65,17.65,0,0,1,6.62,6.9,20.9,20.9,0,0,1,2.41,10.18,20.74,20.74,0,0,1-2.41,10.12,17.83,17.83,0,0,1-6.62,6.94A18.78,18.78,0,0,1,218.32,58.83Z"/><path class="cls-1" d="M261.38,59.5a18.71,18.71,0,0,1-9.9-2.6,18.42,18.42,0,0,1-6.77-7.15,21.76,21.76,0,0,1-2.46-10.49,21.82,21.82,0,0,1,2.44-10.48,18.21,18.21,0,0,1,6.7-7.16A19.4,19.4,0,0,1,268,20.28a19.28,19.28,0,0,1,5.82,3.52,16,16,0,0,1,4,5.23l-4.08,2.07A12.58,12.58,0,0,0,270.6,27a15.21,15.21,0,0,0-4.36-2.72,13.25,13.25,0,0,0-5-1,13.48,13.48,0,0,0-7.33,2A13.92,13.92,0,0,0,248.82,31,18,18,0,0,0,247,39.26a18.14,18.14,0,0,0,1.84,8.33A14,14,0,0,0,254,53.27a13.71,13.71,0,0,0,7.41,2,12.11,12.11,0,0,0,5.08-1.09,15.1,15.1,0,0,0,4.34-3,14.51,14.51,0,0,0,3-4.36L278,48.93a18.12,18.12,0,0,1-4,5.48,18.63,18.63,0,0,1-5.82,3.75A17.64,17.64,0,0,1,261.38,59.5Z"/><path class="cls-1" d="M280.5,58.83l15.93-39.14h4.81L285.53,58.83Zm7.55-11.13V43.45H309.8V47.7Zm24.26,11.13L296.6,19.69h4.75l15.94,39.14Z"/><path class="cls-1" d="M323.05,58.83V19.69h4.75V58.83Zm4.47-15.38V39.09h9a7.32,7.32,0,0,0,3.8-1A7.56,7.56,0,0,0,343,35.43a7.35,7.35,0,0,0,1-3.89,7,7,0,0,0-2.32-5.45,8.66,8.66,0,0,0-6-2.09h-8.17V19.69l8.28-.05a13.8,13.8,0,0,1,6.74,1.48,11.46,11.46,0,0,1,4.58,4.25,11.6,11.6,0,0,1,1.65,6.17A10.87,10.87,0,0,1,347,37.7a12.35,12.35,0,0,1-4.86,4.22,15.36,15.36,0,0,1-6.94,1.53Zm17.62,15.38-9.4-16,3.75-2.46,10.85,18.51Z"/><path class="cls-1" d="M357.1,58.83V19.64l7.66.05v39.2Zm5.71-16.49V35.29h23.7v7.05Zm20.07,16.49V19.69h7.66V58.83Z"/><path class="cls-1" d="M399,58.83V19.69h7.66V58.83Zm5.81-32.15v-7h19v7Zm0,15.71V35.57h16.61v6.82Zm0,16.44v-7H424v7Z"/><path class="cls-1" d="M432,58.83V19.69h7.66V58.83Zm4.92,0v-7h20v7Z"/><path class="cls-1" d="M462,58.83V19.69h7.66V58.83Zm6.76-13v-7H477a5.7,5.7,0,0,0,4.23-1.67,6.07,6.07,0,0,0,1.65-4.42,5.81,5.81,0,0,0-3.14-5.31,6.52,6.52,0,0,0-3.35-.73h-7.61v-7l7.78-.05a14.88,14.88,0,0,1,7.32,1.64,12.47,12.47,0,0,1,6.77,11.44,13.15,13.15,0,0,1-1.74,6.77,12.51,12.51,0,0,1-4.75,4.66,13.92,13.92,0,0,1-7,1.71Z"/><path class="cls-2" d="M33.59,40.31A29.44,29.44,0,0,0,49.7,35.42l-2.08-3.11a25.62,25.62,0,0,1-14.28,4.26,24.69,24.69,0,0,1-7.14-1.12,24.42,24.42,0,0,1,47.32-3.8,33.43,33.43,0,0,1,4.17,1,28.15,28.15,0,0,0-55,1.37,25.34,25.34,0,0,1-3.09-1.75l-2.07,3.11A29.44,29.44,0,0,0,33.3,40.31Z"/><path class="cls-2" d="M33.59,47.85a32.4,32.4,0,0,0,17.76-5.39,28.18,28.18,0,0,1,31.38,0l2.08-3.11A32.47,32.47,0,0,0,67,34h-.31a32.39,32.39,0,0,0-17.45,5.39,28.18,28.18,0,0,1-31.38,0l-2.07,3.11a32.38,32.38,0,0,0,17.44,5.39Z"/><path class="cls-2" d="M66.76,41.35a29.48,29.48,0,0,0-15.82,4.89L53,49.35a25.53,25.53,0,0,1,13.78-4.26,24.85,24.85,0,0,1,7,.93,24.41,24.41,0,0,1-45.26,4.23A34.25,34.25,0,0,1,24,49.34,28.15,28.15,0,0,0,77.3,47.28a24.46,24.46,0,0,1,3.77,2.07l2.08-3.11A29.46,29.46,0,0,0,67,41.35Z"/></svg>